<svg width="16" height="16" viewBox="0 0 16 16" fill="none" xmlns="http://www.w3.org/2000/svg">
  <path d="M10.6667 5.33333V8.66667C10.6667 9.1971 10.8774 9.70581 11.2524 10.0809C11.6275 10.456 12.1362 10.6667 12.6667 10.6667C13.1971 10.6667 13.7058 10.456 14.0809 10.0809C14.4559 9.70581 14.6667 9.1971 14.6667 8.66667V8C14.6667 6.4982 14.1596 5.0404 13.2276 3.86278C12.2956 2.68516 10.9933 1.85672 9.53167 1.51167C8.07005 1.16663 6.53474 1.32521 5.1745 1.9617C3.81425 2.5982 2.70876 3.67533 2.03714 5.01858C1.36552 6.36182 1.16711 7.89249 1.47405 9.36259C1.781 10.8327 2.57533 12.1561 3.72834 13.1183C4.88135 14.0806 6.32548 14.6254 7.82677 14.6644C9.32806 14.7034 10.7986 14.2344 12 13.3333M10.6667 8C10.6667 9.47276 9.47275 10.6667 7.99999 10.6667C6.52723 10.6667 5.33332 9.47276 5.33332 8C5.33332 6.52724 6.52723 5.33333 7.99999 5.33333C9.47275 5.33333 10.6667 6.52724 10.6667 8Z" stroke="#85969B" stroke-linecap="round" stroke-linejoin="round"/>
</svg>